# xmcd
#
# Track frame offsets:
#	150
#	13341
#	29757
#	40967
#	54661
#	65217
#	75037
#	87593
#	101233
#	114736
#	129174
#	142457
#	157642
#	172655
#	186256
#	199346
#	209217
#	221924
#	235398
#	246125
#	256101
#	270032
#	281914
#	292988
#	307063
#
# Disc length: 4245 seconds
#
# Revision: 0
# Processed by: cddbd v1.5.2PL0 Copyright (c) Steve Scherf et al.
# Submitted via: dBpowerAMP V4.0
#
DISCID=82109319
DTITLE=Blues - Greatest hits blues - CD1
DYEAR=2009
DGENRE=Blues
TTITLE0=Amos Milburn - Bad weather whiskey
TTITLE1=BB King - The other things blues
TTITLE2=Bo Diddley - Who do you love
TTITLE3=Ray Charles - A fool for you
TTITLE4=T-Bone Walker - The sun went down
TTITLE5=Bobby Blue Band - Teach me how you love me
TTITLE6=Big Duke - Hey Dr. Kingsley
TTITLE7=James Brown - Why do you do me
TTITLE8=B B King - Crying wont help you
TTITLE9=John Lee Hooker - Women in my life
TTITLE10=Ray Charles  - Don't you know
TTITLE11=Muddy Waters - Honey Blues
TTITLE12=Billie Holiday - No good man
TTITLE13=Ray Charles - The Midnight hour
TTITLE14=Johny Guitar Watson - Stormy
TTITLE15=James Brown - Messing with the howler
TTITLE16=Roosevelt - Hush oh Hush
TTITLE17=Bobby Blue Band - No blow no show
TTITLE18=Mercee Dee - Romp and Stomp Blues
TTITLE19=Billy Gales - Night howeler
TTITLE20=Bo Didlley - Before you accuse me
TTITLE21=Bobby Blue Band - I cant put you down baby
TTITLE22=Bo Diddley - Bring it to Jarome
TTITLE23=John Lee Hooker - I'm in the mood
TTITLE24=Johnny Guitar Watson - Walking to my baby
EXTD=
EXTT0=
EXTT1=
EXTT2=
EXTT3=
EXTT4=
EXTT5=
EXTT6=
EXTT7=
EXTT8=
EXTT9=
EXTT10=
EXTT11=
EXTT12=
EXTT13=
EXTT14=
EXTT15=
EXTT16=
EXTT17=
EXTT18=
EXTT19=
EXTT20=
EXTT21=
EXTT22=
EXTT23=
EXTT24=
PLAYORDER=
